<?xml version="1.0" encoding="iso-8859-1"?>
<!-- Uploaded to: SVG Repo, www.svgrepo.com, Generator: SVG Repo Mixer Tools -->
<svg version="1.1" id="Layer_1" xmlns="http://www.w3.org/2000/svg" xmlns:xlink="http://www.w3.org/1999/xlink" 
	 viewBox="0 0 512 512" xml:space="preserve">
<path style="fill:#FFDD77;" d="M333.072,459.09l-78.706,32.681L175.66,459.09c0-23.062,29.587-41.766,52.66-41.766h52.093
	C303.485,417.324,333.072,436.028,333.072,459.09z"/>
<path style="fill:#FFCC3D;" d="M354.86,459.09l-16.34,10.894l-16.34-10.894c0-23.062-18.693-41.766-41.766-41.766h32.681
	C336.166,417.324,354.86,436.028,354.86,459.09z"/>
<path style="fill:#F9F0B5;" d="M195.638,417.324h32.681c-23.073,0-41.766,18.704-41.766,41.766l-16.34,10.894l-16.34-10.894
	C153.872,436.028,172.566,417.324,195.638,417.324z"/>
<path style="fill:#FFCC3D;" d="M323.007,59.12l-68.641,21.787L185.725,59.12c0-17.364,35.862-31.428,53.226-31.428h30.829
	C287.145,27.692,323.007,41.756,323.007,59.12z"/>
<path style="fill:#FFBB02;" d="M333.9,59.12l-16.34,10.894l-16.34-10.894c0-17.364-14.075-31.428-31.439-31.428h32.681
	C319.826,27.692,333.9,41.756,333.9,59.12z"/>
<path style="fill:#FFDD77;" d="M206.271,27.692h32.681c-17.364,0-31.439,14.064-31.439,31.428l-16.34,10.894l-16.34-10.894
	C174.832,41.756,188.906,27.692,206.271,27.692z"/>
<g>
	<path style="fill:#FFCC3D;" d="M357.873,315.898c10.325,26.672,36.206,45.594,66.522,45.594c30.317,0,56.197-18.922,66.523-45.594
		H357.873z"/>
	<path style="fill:#FFCC3D;" d="M86.516,361.492c30.317,0,56.197-18.922,66.522-45.594H19.993
		C30.318,342.57,56.199,361.492,86.516,361.492z"/>
	<path style="fill:#FFCC3D;" d="M398.434,500.856H110.298c0-23.073,40.481-41.766,63.553-41.766h161.029
		C357.953,459.09,398.434,477.784,398.434,500.856z"/>
</g>
<path style="fill:#FFBB02;" d="M409.328,500.856h-32.681c0-23.073-18.693-41.766-41.766-41.766h32.681
	C390.634,459.09,409.328,477.784,409.328,500.856z"/>
<g>
	<path style="fill:#FFDD77;" d="M141.17,459.09h32.681c-23.073,0-41.766,18.693-41.766,41.766H99.404
		C99.404,477.784,118.098,459.09,141.17,459.09z"/>
	<rect x="150.103" y="59.119" style="fill:#FFDD77;" width="208.536" height="32.746"/>
</g>
<g>
	<path style="fill:#1D2328;" d="M87.061,369.755c30.676,0,58.878-18.107,71.891-45.594h6.998c4.512,0,8.17-3.658,8.17-8.17
		c0-4.512-3.658-8.17-8.17-8.17H8.17c-4.512,0-8.17,3.658-8.17,8.17c0,4.512,3.658,8.17,8.17,8.17h6.999
		C28.183,351.648,56.384,369.755,87.061,369.755z M140.308,324.161c-11.461,17.875-31.576,29.254-53.248,29.254
		s-41.786-11.378-53.248-29.254H140.308z"/>
	<path style="fill:#1D2328;" d="M503.83,307.82H346.05c-4.512,0-8.17,3.658-8.17,8.17c0,4.512,3.658,8.17,8.17,8.17h6.998
		c13.014,27.487,41.215,45.594,71.891,45.594c30.676,0,58.878-18.107,71.891-45.594h6.999c4.512,0,8.17-3.658,8.17-8.17
		C512,311.478,508.342,307.82,503.83,307.82z M424.939,353.415c-21.672,0-41.786-11.378-53.248-29.254h106.495
		C466.725,342.036,446.611,353.415,424.939,353.415z"/>
	<path style="fill:#1D2328;" d="M460.26,492.775h-41.806c-3.912-23.659-24.504-41.764-49.254-41.764h-5.202
		c-3.91-23.662-24.513-41.764-49.266-41.764H264.17V100.13h149.423l-62.925,188.214c-1.43,4.279,0.878,8.909,5.158,10.339
		c4.279,1.434,8.909-0.878,10.339-5.158l58.774-175.798l58.774,175.798c1.143,3.421,4.329,5.582,7.748,5.582
		c0.859,0,1.732-0.136,2.592-0.424c4.28-1.43,6.588-6.06,5.158-10.339L436.285,100.13h13.39c4.512,0,8.17-3.658,8.17-8.17
		c0-4.512-3.658-8.17-8.17-8.17H264.17v-47.84h39.926c12.827,0,23.263,10.436,23.263,23.263c0,4.512,3.658,8.17,8.17,8.17h24.736
		c4.512,0,8.17-3.658,8.17-8.17s-3.658-8.17-8.17-8.17h-17.412c-3.776-17.931-19.72-31.434-38.757-31.434H264.17v-8.555
		c0-4.512-3.658-8.17-8.17-8.17s-8.17,3.658-8.17,8.17v8.555h-39.926c-19.038,0-34.98,13.504-38.757,31.434h-17.412
		c-4.512,0-8.17,3.658-8.17,8.17s3.658,8.17,8.17,8.17h24.736c4.512,0,8.17-3.658,8.17-8.17c0-12.827,10.436-23.263,23.263-23.263
		h39.926v47.84H62.325c-4.512,0-8.17,3.658-8.17,8.17c0,4.512,3.658,8.17,8.17,8.17h13.39L12.79,288.345
		c-1.43,4.279,0.878,8.909,5.158,10.339c4.28,1.434,8.909-0.878,10.339-5.158l58.773-175.799l58.774,175.798
		c1.143,3.421,4.329,5.582,7.748,5.582c0.859,0,1.732-0.136,2.592-0.424c4.28-1.43,6.588-6.06,5.158-10.339L98.406,100.13H247.83
		v309.117h-50.561c-24.752,0-45.356,18.102-49.266,41.764h-5.202c-24.75,0-45.343,18.105-49.254,41.764H51.74
		c-4.512,0-8.17,3.658-8.17,8.17c0,4.512,3.658,8.17,8.17,8.17h408.52c4.512,0,8.17-3.658,8.17-8.17
		C468.43,496.432,464.772,492.775,460.26,492.775z M142.801,467.352h12.704c4.512,0,8.17-3.658,8.17-8.17
		c0-18.523,15.07-33.594,33.594-33.594h117.462c18.523,0,33.594,15.07,33.594,33.594c0,4.512,3.658,8.17,8.17,8.17h12.704
		c15.706,0,28.925,10.836,32.584,25.424H110.217C113.876,478.188,127.095,467.352,142.801,467.352z"/>
	<path style="fill:#1D2328;" d="M323.814,451.012H188.186c-4.512,0-8.17,3.658-8.17,8.17c0,4.512,3.658,8.17,8.17,8.17h135.628
		c4.512,0,8.17-3.658,8.17-8.17C331.984,454.67,328.326,451.012,323.814,451.012z"/>
</g>
</svg>