<svg version="1.1" id="Layer_1" xmlns="http://www.w3.org/2000/svg" xmlns:xlink="http://www.w3.org/1999/xlink" x="0px" y="0px"
	 width="100%" viewBox="0 0 200 200" enable-background="new 0 0 200 200" xml:space="preserve">
<path fill="#78F4B5" opacity="1.000000" stroke="none" 
	d="
M117.000000,201.000000 
	C78.024071,201.000000 39.548149,201.000000 1.036112,201.000000 
	C1.036112,134.399109 1.036112,67.798203 1.036112,1.098643 
	C67.559090,1.098643 134.118378,1.098643 200.838837,1.098643 
	C200.838837,67.666351 200.838837,134.333145 200.838837,201.000000 
	C173.131821,201.000000 145.315903,201.000000 117.000000,201.000000 
M69.870461,54.454132 
	C65.908287,53.037609 61.946114,51.621090 57.994431,50.208324 
	C53.508366,63.838104 57.886547,75.570999 69.005867,81.412437 
	C73.074257,92.775406 80.667030,100.252571 93.019455,103.594894 
	C93.958191,107.420448 95.163727,111.205299 95.755463,115.083794 
	C96.275818,118.494400 97.656807,120.873032 101.202911,120.892044 
	C105.067451,120.912766 106.272743,118.145302 106.931580,114.707230 
	C107.695488,110.720802 108.990822,106.836212 110.767654,102.791626 
	C121.809792,99.138435 129.286224,91.862045 133.557510,80.374641 
	C144.285660,74.870026 149.370239,58.387924 143.322311,50.825691 
	C139.200790,52.649738 135.269196,54.389729 131.110077,55.426044 
	C127.273300,47.547489 121.380531,41.929031 112.916885,38.066463 
	C112.896156,33.269714 113.019386,28.464863 112.750183,23.682100 
	C112.685509,22.533037 111.317886,21.457312 110.549477,20.347858 
	C109.651360,21.485020 108.077347,22.565277 107.975960,23.769516 
	C107.602356,28.207108 107.716438,32.685757 106.918175,37.084274 
	C105.947128,37.024704 104.976089,36.965137 103.889793,35.990021 
	C103.886375,33.175461 104.084488,30.341906 103.821541,27.551805 
	C103.570305,24.885979 105.378418,20.997849 100.942398,20.486429 
	C100.343124,20.417339 98.809807,24.851877 98.438789,27.311142 
	C97.974342,30.389631 98.264465,33.581963 97.375832,36.756214 
	C96.523407,36.811729 95.670982,36.867245 94.702942,36.006119 
	C94.678978,32.025738 94.890831,28.022335 94.505745,24.077204 
	C94.367188,22.657700 92.792580,21.378366 91.873344,20.035063 
	C90.959442,21.366888 89.359718,22.647245 89.255211,24.039812 
	C88.883812,28.988647 89.021957,33.975723 88.255486,39.044865 
	C80.387787,41.877201 75.112411,47.682938 69.870461,54.454132 
M54.631210,130.926437 
	C54.014637,132.460983 53.398064,133.995529 52.412220,136.449127 
	C51.079021,132.903229 50.748070,129.831573 49.047134,128.126846 
	C47.406876,126.482941 44.383385,125.810875 41.902245,125.635361 
	C41.031574,125.573761 39.271751,128.182602 39.116608,129.695023 
	C38.574245,134.982224 38.521091,140.322052 38.354290,145.644135 
	C38.286896,147.794586 37.981606,150.089615 41.329258,150.250351 
	C44.391277,150.397385 45.487389,149.075562 45.443249,146.147629 
	C45.411789,144.060760 45.774349,141.967941 45.961075,139.877777 
	C47.703510,142.282928 48.380535,144.968521 49.533676,147.431183 
	C50.042683,148.518204 51.513947,149.803024 52.555458,149.809265 
	C53.588749,149.815430 55.083912,148.534180 55.577808,147.452774 
	C56.709736,144.974350 57.354919,142.273651 58.197739,139.663193 
	C58.465691,139.718643 58.733643,139.774078 59.001595,139.829529 
	C59.443378,143.183472 59.885159,146.537399 60.366711,150.193268 
	C62.724541,150.057236 64.639130,149.946777 67.048195,149.807800 
	C66.678452,142.216644 66.375679,135.089111 65.920975,127.971275 
	C65.871498,127.196777 65.111572,126.152977 64.397896,125.787903 
	C60.480419,123.784004 56.310738,125.776527 54.631210,130.926437 
M104.753586,133.766724 
	C104.432663,134.334946 104.111748,134.903183 103.419823,136.128326 
	C102.219917,133.040451 101.824448,129.910629 100.066048,128.116776 
	C98.445244,126.463303 95.391289,125.805428 92.904190,125.631805 
	C92.030922,125.570839 90.264153,128.180557 90.115227,129.690140 
	C89.576912,135.146866 89.346855,140.659332 89.479553,146.139175 
	C89.512947,147.518402 91.078796,149.612823 92.382660,150.045319 
	C94.767380,150.836380 96.443245,149.597977 96.422478,146.653183 
	C96.406563,144.396408 96.770157,142.136963 96.964966,139.878708 
	C98.701187,142.282608 99.378067,144.968628 100.531265,147.431625 
	C101.040428,148.519104 102.511658,149.804153 103.553932,149.811020 
	C104.587769,149.817825 106.085052,148.537689 106.579155,147.456436 
	C107.711594,144.978317 108.356552,142.277435 109.199440,139.667007 
	C109.464943,139.723145 109.730453,139.779297 109.995956,139.835449 
	C110.441986,143.189972 110.888008,146.544479 111.374062,150.200027 
	C113.734375,150.060730 115.647354,149.947830 118.048965,149.806091 
	C117.679138,142.206696 117.415962,135.074890 116.879395,127.963715 
	C116.812614,127.078651 115.425972,125.827255 114.430092,125.555847 
	C109.041473,124.087273 107.267433,125.572418 104.753586,133.766724 
M71.768837,132.134796 
	C67.936592,132.375717 69.774269,134.700287 70.314384,136.355316 
	C72.411331,142.780853 77.067940,148.871872 72.363602,156.667572 
	C75.288376,156.366379 78.764130,156.070023 79.415588,154.557343 
	C82.404190,147.617889 84.602928,140.338272 87.044868,133.297043 
	C80.359283,129.340042 80.134453,135.584015 78.638832,137.836411 
	C76.441513,135.782074 74.485985,133.953796 71.768837,132.134796 
M152.359756,140.671600 
	C152.306274,139.847214 152.238220,139.023483 152.201736,138.198349 
	C151.994736,133.516281 149.219009,132.038910 144.929977,132.086334 
	C140.883820,132.131073 139.000854,133.529907 140.284683,137.851303 
	C140.460907,138.444489 139.132828,139.355042 139.026489,140.185898 
	C138.700089,142.736160 137.584106,146.074554 138.745972,147.681824 
	C139.963989,149.366776 143.430756,149.552933 145.978134,150.097336 
	C147.275574,150.374634 148.721085,150.071747 150.083344,149.900955 
	C151.403534,149.735428 153.295639,149.824982 153.857834,149.034912 
	C154.526917,148.094574 154.269852,146.290939 153.997528,144.945663 
	C153.752487,143.735138 152.944290,142.638596 152.359756,140.671600 
M120.798439,143.745651 
	C122.889175,149.580017 127.673050,152.166946 132.710236,149.905136 
	C133.725815,149.449112 134.206573,147.802002 134.933899,146.704041 
	C133.863602,146.302094 132.821884,145.726974 131.715393,145.544525 
	C130.487885,145.342117 129.201279,145.498215 127.940407,145.498215 
	C128.508835,144.254730 129.093185,144.049179 129.678940,144.045181 
	C133.925049,144.016235 136.498535,142.170929 135.934830,137.665833 
	C135.392258,133.329514 132.182693,132.006485 128.320175,132.185349 
	C123.232765,132.420959 120.725151,136.095123 120.798439,143.745651 
M162.930817,127.101738 
	C161.423264,126.569389 159.897095,125.636673 158.417511,125.705475 
	C157.841110,125.732285 156.959991,128.002777 156.921326,129.272690 
	C156.754791,134.743057 157.038437,140.229874 156.793381,145.694351 
	C156.568619,150.706558 159.085724,150.602280 162.989807,149.481827 
	C162.989807,142.198700 162.989807,135.091812 162.930817,127.101738 
z"/>
<path fill="#12847C" opacity="1.000000" stroke="none" 
	d="
M110.055466,102.907417 
	C108.990822,106.836212 107.695488,110.720802 106.931580,114.707230 
	C106.272743,118.145302 105.067451,120.912766 101.202911,120.892044 
	C97.656807,120.873032 96.275818,118.494400 95.755463,115.083794 
	C95.163727,111.205299 93.958191,107.420448 92.755447,102.908829 
	C90.852356,98.957565 89.375748,95.597740 87.540665,92.446693 
	C83.618927,85.712624 80.014923,78.329124 69.947517,80.770821 
	C69.649635,80.843071 69.294197,80.677994 68.965591,80.623573 
	C57.886547,75.570999 53.508366,63.838104 57.994431,50.208324 
	C61.946114,51.621090 65.908287,53.037609 70.514420,54.652893 
	C80.410217,57.527367 85.857452,64.694786 83.071541,74.448700 
	C82.798294,75.405403 83.025200,76.876396 83.618500,77.649101 
	C87.570755,82.796440 91.685883,87.818703 95.992050,93.185677 
	C95.992050,84.119659 96.214485,75.345085 95.814102,66.599037 
	C95.728729,64.734009 93.362511,62.984425 92.078224,61.159729 
	C91.079971,59.741421 89.385696,58.336803 89.289810,56.843346 
	C88.907982,50.895943 89.031021,44.916126 88.967117,38.948315 
	C89.021957,33.975723 88.883812,28.988647 89.255211,24.039812 
	C89.359718,22.647245 90.959442,21.366888 91.873344,20.035065 
	C92.792580,21.378366 94.367188,22.657700 94.505745,24.077204 
	C94.890831,28.022335 94.678978,32.025738 94.607460,36.837280 
	C94.483925,40.809574 94.320869,43.958954 94.511940,47.086697 
	C94.567657,47.998798 95.633446,48.849194 96.236252,49.727875 
	C97.007881,48.848732 98.396996,47.999462 98.441231,47.085129 
	C98.607750,43.643284 98.336296,40.180248 98.228874,36.725151 
	C98.264465,33.581963 97.974342,30.389631 98.438789,27.311142 
	C98.809807,24.851877 100.343124,20.417339 100.942398,20.486429 
	C105.378418,20.997849 103.570305,24.885979 103.821541,27.551805 
	C104.084488,30.341906 103.886375,33.175461 103.866364,36.913113 
	C103.831833,40.499424 103.606117,43.186588 103.899422,45.815853 
	C104.047958,47.147327 105.133873,48.374233 105.795990,49.648418 
	C106.483383,48.306812 107.632660,47.007713 107.760857,45.614647 
	C108.018044,42.819912 107.717453,39.973843 107.647095,37.148964 
	C107.716438,32.685757 107.602356,28.207108 107.975960,23.769516 
	C108.077347,22.565277 109.651360,21.485020 110.549477,20.347858 
	C111.317886,21.457312 112.685509,22.533037 112.750183,23.682100 
	C113.019386,28.464863 112.896156,33.269714 112.897575,38.994003 
	C112.866936,45.572758 112.908524,51.224968 112.803017,56.874428 
	C112.779793,58.117794 112.474701,60.297581 111.892906,60.445312 
	C104.943214,62.210045 106.995071,67.728577 106.888832,72.195923 
	C106.722908,79.172661 106.844894,86.156242 106.844894,93.507385 
	C110.832130,88.442261 114.408691,84.110985 117.698547,79.571907 
	C118.531052,78.423286 118.936508,76.534233 118.710838,75.117172 
	C116.757431,62.851227 119.216881,59.056519 131.337616,56.129723 
	C135.269196,54.389729 139.200790,52.649738 143.322311,50.825691 
	C149.370239,58.387924 144.285660,74.870026 132.862289,80.596581 
	C128.747711,81.419495 123.773865,80.815842 122.199928,82.846893 
	C117.443436,88.984818 114.006645,96.145424 110.055466,102.907417 
z"/>
<path fill="#11857C" opacity="1.000000" stroke="none" 
	d="
M54.748432,130.562561 
	C56.310738,125.776527 60.480419,123.784004 64.397896,125.787903 
	C65.111572,126.152977 65.871498,127.196777 65.920975,127.971275 
	C66.375679,135.089111 66.678452,142.216644 67.048195,149.807800 
	C64.639130,149.946777 62.724541,150.057236 60.366711,150.193268 
	C59.885159,146.537399 59.443378,143.183472 59.001595,139.829529 
	C58.733643,139.774078 58.465691,139.718643 58.197739,139.663193 
	C57.354919,142.273651 56.709736,144.974350 55.577808,147.452774 
	C55.083912,148.534180 53.588749,149.815430 52.555458,149.809265 
	C51.513947,149.803024 50.042683,148.518204 49.533676,147.431183 
	C48.380535,144.968521 47.703510,142.282928 45.961075,139.877777 
	C45.774349,141.967941 45.411789,144.060760 45.443249,146.147629 
	C45.487389,149.075562 44.391277,150.397385 41.329258,150.250351 
	C37.981606,150.089615 38.286896,147.794586 38.354290,145.644135 
	C38.521091,140.322052 38.574245,134.982224 39.116608,129.695023 
	C39.271751,128.182602 41.031574,125.573761 41.902245,125.635361 
	C44.383385,125.810875 47.406876,126.482941 49.047134,128.126846 
	C50.748070,129.831573 51.079021,132.903229 52.412220,136.449127 
	C53.398064,133.995529 54.014637,132.460983 54.748432,130.562561 
z"/>
<path fill="#11867C" opacity="1.000000" stroke="none" 
	d="
M104.853394,133.413361 
	C107.267433,125.572418 109.041473,124.087273 114.430092,125.555847 
	C115.425972,125.827255 116.812614,127.078651 116.879395,127.963715 
	C117.415962,135.074890 117.679138,142.206696 118.048965,149.806091 
	C115.647354,149.947830 113.734375,150.060730 111.374062,150.200027 
	C110.888008,146.544479 110.441986,143.189972 109.995956,139.835449 
	C109.730453,139.779297 109.464943,139.723145 109.199440,139.667007 
	C108.356552,142.277435 107.711594,144.978317 106.579155,147.456436 
	C106.085052,148.537689 104.587769,149.817825 103.553932,149.811020 
	C102.511658,149.804153 101.040428,148.519104 100.531265,147.431625 
	C99.378067,144.968628 98.701187,142.282608 96.964966,139.878708 
	C96.770157,142.136963 96.406563,144.396408 96.422478,146.653183 
	C96.443245,149.597977 94.767380,150.836380 92.382660,150.045319 
	C91.078796,149.612823 89.512947,147.518402 89.479553,146.139175 
	C89.346855,140.659332 89.576912,135.146866 90.115227,129.690140 
	C90.264153,128.180557 92.030922,125.570839 92.904190,125.631805 
	C95.391289,125.805428 98.445244,126.463303 100.066048,128.116776 
	C101.824448,129.910629 102.219917,133.040451 103.419823,136.128326 
	C104.111748,134.903183 104.432663,134.334946 104.853394,133.413361 
z"/>
<path fill="#FBFDFD" opacity="1.000000" stroke="none" 
	d="
M88.611298,38.996590 
	C89.031021,44.916126 88.907982,50.895943 89.289810,56.843346 
	C89.385696,58.336803 91.079971,59.741421 92.078224,61.159729 
	C93.362511,62.984425 95.728729,64.734009 95.814102,66.599037 
	C96.214485,75.345085 95.992050,84.119659 95.992050,93.185677 
	C91.685883,87.818703 87.570755,82.796440 83.618500,77.649101 
	C83.025200,76.876396 82.798294,75.405403 83.071541,74.448700 
	C85.857452,64.694786 80.410217,57.527367 70.897476,54.628700 
	C75.112411,47.682938 80.387787,41.877201 88.611298,38.996590 
z"/>
<path fill="#FCFEFD" opacity="1.000000" stroke="none" 
	d="
M131.223846,55.777885 
	C119.216881,59.056519 116.757431,62.851227 118.710838,75.117172 
	C118.936508,76.534233 118.531052,78.423286 117.698547,79.571907 
	C114.408691,84.110985 110.832130,88.442261 106.844894,93.507385 
	C106.844894,86.156242 106.722908,79.172661 106.888832,72.195923 
	C106.995071,67.728577 104.943214,62.210045 111.892906,60.445312 
	C112.474701,60.297581 112.779793,58.117794 112.803017,56.874428 
	C112.908524,51.224968 112.866936,45.572758 112.962479,39.457764 
	C121.380531,41.929031 127.273300,47.547489 131.223846,55.777885 
z"/>
<path fill="#13877D" opacity="1.000000" stroke="none" 
	d="
M72.149643,132.130157 
	C74.485985,133.953796 76.441513,135.782074 78.638832,137.836411 
	C80.134453,135.584015 80.359283,129.340042 87.044868,133.297043 
	C84.602928,140.338272 82.404190,147.617889 79.415588,154.557343 
	C78.764130,156.070023 75.288376,156.366379 72.363602,156.667572 
	C77.067940,148.871872 72.411331,142.780853 70.314384,136.355316 
	C69.774269,134.700287 67.936592,132.375717 72.149643,132.130157 
z"/>
<path fill="#12867C" opacity="1.000000" stroke="none" 
	d="
M152.372131,141.081696 
	C152.944290,142.638596 153.752487,143.735138 153.997528,144.945663 
	C154.269852,146.290939 154.526917,148.094574 153.857834,149.034912 
	C153.295639,149.824982 151.403534,149.735428 150.083344,149.900955 
	C148.721085,150.071747 147.275574,150.374634 145.978134,150.097336 
	C143.430756,149.552933 139.963989,149.366776 138.745972,147.681824 
	C137.584106,146.074554 138.700089,142.736160 139.026489,140.185898 
	C139.132828,139.355042 140.460907,138.444489 140.284683,137.851303 
	C139.000854,133.529907 140.883820,132.131073 144.929977,132.086334 
	C149.219009,132.038910 151.994736,133.516281 152.201736,138.198349 
	C152.238220,139.023483 152.306274,139.847214 152.372131,141.081696 
z"/>
<path fill="#F9FDFC" opacity="1.000000" stroke="none" 
	d="
M68.985733,81.018005 
	C69.294197,80.677994 69.649635,80.843071 69.947517,80.770821 
	C80.014923,78.329124 83.618927,85.712624 87.540665,92.446693 
	C89.375748,95.597740 90.852356,98.957565 92.578651,102.547318 
	C80.667030,100.252571 73.074257,92.775406 68.985733,81.018005 
z"/>
<path fill="#12877C" opacity="1.000000" stroke="none" 
	d="
M120.731194,143.370697 
	C120.725151,136.095123 123.232765,132.420959 128.320175,132.185349 
	C132.182693,132.006485 135.392258,133.329514 135.934830,137.665833 
	C136.498535,142.170929 133.925049,144.016235 129.678940,144.045181 
	C129.093185,144.049179 128.508835,144.254730 127.940407,145.498215 
	C129.201279,145.498215 130.487885,145.342117 131.715393,145.544525 
	C132.821884,145.726974 133.863602,146.302094 134.933899,146.704041 
	C134.206573,147.802002 133.725815,149.449112 132.710236,149.905136 
	C127.673050,152.166946 122.889175,149.580017 120.731194,143.370697 
z"/>
<path fill="#F8FCFB" opacity="1.000000" stroke="none" 
	d="
M110.411560,102.849518 
	C114.006645,96.145424 117.443436,88.984818 122.199928,82.846893 
	C123.773865,80.815842 128.747711,81.419495 132.621002,80.828476 
	C129.286224,91.862045 121.809792,99.138435 110.411560,102.849518 
z"/>
<path fill="#0E827A" opacity="1.000000" stroke="none" 
	d="
M162.960312,127.543327 
	C162.989807,135.091812 162.989807,142.198700 162.989807,149.481827 
	C159.085724,150.602280 156.568619,150.706558 156.793381,145.694351 
	C157.038437,140.229874 156.754791,134.743057 156.921326,129.272690 
	C156.959991,128.002777 157.841110,125.732285 158.417511,125.705475 
	C159.897095,125.636673 161.423264,126.569389 162.960312,127.543327 
z"/>
<path fill="#DEEEED" opacity="1.000000" stroke="none" 
	d="
M97.802353,36.740685 
	C98.336296,40.180248 98.607750,43.643284 98.441231,47.085129 
	C98.396996,47.999462 97.007881,48.848732 96.236252,49.727875 
	C95.633446,48.849194 94.567657,47.998798 94.511940,47.086697 
	C94.320869,43.958954 94.483925,40.809574 94.665268,37.295601 
	C95.670982,36.867245 96.523407,36.811729 97.802353,36.740685 
z"/>
<path fill="#EFF7F6" opacity="1.000000" stroke="none" 
	d="
M107.282639,37.116619 
	C107.717453,39.973843 108.018044,42.819912 107.760857,45.614647 
	C107.632660,47.007713 106.483383,48.306812 105.795990,49.648418 
	C105.133873,48.374233 104.047958,47.147327 103.899422,45.815853 
	C103.606117,43.186588 103.831833,40.499424 103.923981,37.370888 
	C104.976089,36.965137 105.947128,37.024704 107.282639,37.116619 
z"/>
</svg>